<?xml version="1.0" encoding="utf-8"?>
<!-- Generator: Adobe Illustrator 27.0.0, SVG Export Plug-In . SVG Version: 6.00 Build 0)  -->
<svg version="1.2" baseProfile="tiny" id="g-Impacts-of-global-warming-on-glaciers-and-sea-level-rise-Artboard_2-interactive-img" xmlns="http://www.w3.org/2000/svg" xmlns:xlink="http://www.w3.org/1999/xlink"
	 x="0px" y="0px" viewBox="0 0 865 585" overflow="visible" xml:space="preserve">
<g>
	<g id="path-2-3_00000091010387691454106850000013382591563312905637_">
		<path fill="#5555DD" d="M177.711,440.026c0,0.886-0.046,1.77-0.137,2.652c-0.091,0.882-0.228,1.757-0.41,2.626
			c-0.182,0.869-0.408,1.728-0.679,2.576c-0.271,0.848-0.584,1.681-0.941,2.5c-0.357,0.819-0.755,1.619-1.194,2.4
			c-0.439,0.782-0.918,1.541-1.436,2.277c-0.518,0.737-1.073,1.448-1.664,2.133c-0.591,0.685-1.217,1.341-1.876,1.967
			c-0.659,0.627-1.349,1.221-2.07,1.783c-0.721,0.562-1.468,1.089-2.243,1.582c-0.775,0.492-1.574,0.947-2.396,1.365
			c-0.822,0.418-1.664,0.796-2.525,1.135c-0.861,0.339-1.738,0.637-2.63,0.895c-0.892,0.257-1.795,0.472-2.709,0.645
			c-0.914,0.173-1.835,0.303-2.763,0.39s-1.858,0.13-2.79,0.13c-0.932,0-1.862-0.043-2.79-0.13s-1.849-0.217-2.763-0.39
			c-0.914-0.173-1.817-0.388-2.709-0.645c-0.892-0.257-1.769-0.555-2.63-0.895c-0.861-0.339-1.703-0.717-2.525-1.135
			c-0.822-0.418-1.621-0.873-2.396-1.365c-0.775-0.492-1.523-1.02-2.243-1.582s-1.41-1.157-2.07-1.783
			c-0.659-0.627-1.284-1.282-1.876-1.967c-0.591-0.685-1.146-1.396-1.664-2.133c-0.518-0.737-0.997-1.496-1.436-2.277
			c-0.439-0.781-0.838-1.582-1.194-2.4s-0.67-1.652-0.941-2.5c-0.271-0.848-0.497-1.707-0.679-2.576
			c-0.182-0.869-0.318-1.745-0.41-2.626c-0.091-0.882-0.137-1.766-0.137-2.652s0.046-1.77,0.137-2.652
			c0.091-0.882,0.228-1.757,0.41-2.626c0.182-0.869,0.408-1.728,0.679-2.576c0.271-0.848,0.584-1.681,0.941-2.5
			s0.755-1.619,1.194-2.4c0.439-0.782,0.918-1.541,1.436-2.277c0.518-0.737,1.073-1.448,1.664-2.133s1.217-1.341,1.876-1.967
			c0.659-0.627,1.349-1.221,2.07-1.783c0.721-0.562,1.468-1.089,2.243-1.582c0.775-0.492,1.574-0.947,2.396-1.365
			c0.822-0.418,1.664-0.796,2.525-1.135c0.861-0.339,1.738-0.637,2.63-0.894c0.892-0.257,1.795-0.472,2.709-0.645
			c0.914-0.173,1.835-0.303,2.763-0.39c0.928-0.087,1.858-0.13,2.79-0.13c0.932,0,1.862,0.043,2.79,0.13
			c0.928,0.087,1.849,0.217,2.763,0.39c0.914,0.173,1.817,0.388,2.709,0.645c0.892,0.257,1.769,0.555,2.63,0.894
			c0.861,0.339,1.703,0.718,2.525,1.135c0.822,0.418,1.621,0.873,2.396,1.365c0.775,0.492,1.523,1.02,2.243,1.582
			c0.721,0.562,1.41,1.157,2.07,1.783c0.659,0.627,1.284,1.282,1.876,1.967c0.591,0.685,1.146,1.396,1.664,2.133
			c0.518,0.737,0.997,1.496,1.436,2.277c0.439,0.781,0.837,1.582,1.194,2.4c0.357,0.819,0.67,1.652,0.941,2.5
			s0.497,1.707,0.679,2.576c0.182,0.869,0.318,1.745,0.41,2.626C177.665,438.256,177.711,439.14,177.711,440.026z"/>
		<path fill="#5555DD" d="M661.448,155.106l4.929-2.707l0.854,1.406l-4.929,2.707 M641.731,165.933l4.929-2.707l0.854,1.406
			l-4.929,2.707 M622.015,176.761l4.929-2.707l0.854,1.406l-4.929,2.707 M602.298,187.588l4.929-2.707l0.854,1.406l-4.929,2.707
			 M582.582,198.415l4.929-2.707l0.854,1.406l-4.929,2.707 M562.866,209.243l4.929-2.707l0.854,1.406l-4.929,2.707 M543.149,220.07
			l4.929-2.707l0.854,1.406l-4.929,2.707 M523.433,230.898l4.929-2.707l0.854,1.406l-4.929,2.707 M503.717,241.725l4.929-2.707
			l0.854,1.406l-4.929,2.707 M484,252.552l4.929-2.707l0.854,1.406l-4.929,2.707 M464.284,263.38l4.929-2.707l0.854,1.406
			l-4.929,2.707 M444.567,274.207l4.929-2.707l0.854,1.406l-4.929,2.707 M424.851,285.034l4.929-2.707l0.854,1.406l-4.929,2.707
			 M405.135,295.862l4.929-2.707l0.854,1.406l-4.929,2.707 M385.418,306.689l4.929-2.707l0.854,1.406l-4.929,2.707 M365.702,317.516
			l4.929-2.707l0.854,1.406l-4.929,2.707 M345.985,328.344l4.929-2.707l0.854,1.406l-4.929,2.707 M326.269,339.171l4.929-2.707
			l0.854,1.406l-4.929,2.707 M306.553,349.999l4.929-2.707l0.854,1.406l-4.929,2.707 M286.836,360.826l4.929-2.707l0.854,1.406
			l-4.929,2.707 M267.12,371.653l4.929-2.707l0.854,1.406l-4.929,2.707 M247.404,382.481l4.929-2.707l0.854,1.406l-4.929,2.707
			 M227.687,393.308l4.929-2.707l0.854,1.406l-4.929,2.707 M207.971,404.135l4.929-2.707l0.854,1.406l-4.929,2.707 M188.254,414.963
			l4.929-2.707l0.854,1.406l-4.929,2.707 M168.538,425.79l4.929-2.707l0.854,1.406l-4.929,2.707 M148.822,436.618l4.929-2.707
			l0.854,1.406l-4.929,2.707"/>
		<path fill="none" stroke="#5555DD" stroke-width="0.5004" d="M177.711,440.026c0,0.886-0.046,1.77-0.137,2.652
			c-0.091,0.882-0.228,1.757-0.41,2.626c-0.182,0.869-0.408,1.728-0.679,2.576c-0.271,0.848-0.584,1.681-0.941,2.5
			c-0.357,0.819-0.755,1.619-1.194,2.4c-0.439,0.782-0.918,1.541-1.436,2.277c-0.518,0.737-1.073,1.448-1.664,2.133
			c-0.591,0.685-1.217,1.341-1.876,1.967c-0.659,0.627-1.349,1.221-2.07,1.783c-0.721,0.562-1.468,1.089-2.243,1.582
			c-0.775,0.492-1.574,0.947-2.396,1.365c-0.822,0.418-1.664,0.796-2.525,1.135c-0.861,0.339-1.738,0.637-2.63,0.895
			c-0.892,0.257-1.795,0.472-2.709,0.645c-0.914,0.173-1.835,0.303-2.763,0.39s-1.858,0.13-2.79,0.13
			c-0.932,0-1.862-0.043-2.79-0.13s-1.849-0.217-2.763-0.39c-0.914-0.173-1.817-0.388-2.709-0.645
			c-0.892-0.257-1.769-0.555-2.63-0.895c-0.861-0.339-1.703-0.717-2.525-1.135c-0.822-0.418-1.621-0.873-2.396-1.365
			c-0.775-0.492-1.523-1.02-2.243-1.582s-1.41-1.157-2.07-1.783c-0.659-0.627-1.284-1.282-1.876-1.967
			c-0.591-0.685-1.146-1.396-1.664-2.133c-0.518-0.737-0.997-1.496-1.436-2.277c-0.439-0.781-0.838-1.582-1.194-2.4
			s-0.67-1.652-0.941-2.5c-0.271-0.848-0.497-1.707-0.679-2.576c-0.182-0.869-0.318-1.745-0.41-2.626
			c-0.091-0.882-0.137-1.766-0.137-2.652s0.046-1.77,0.137-2.652c0.091-0.882,0.228-1.757,0.41-2.626
			c0.182-0.869,0.408-1.728,0.679-2.576c0.271-0.848,0.584-1.681,0.941-2.5s0.755-1.619,1.194-2.4
			c0.439-0.782,0.918-1.541,1.436-2.277c0.518-0.737,1.073-1.448,1.664-2.133s1.217-1.341,1.876-1.967
			c0.659-0.627,1.349-1.221,2.07-1.783c0.721-0.562,1.468-1.089,2.243-1.582c0.775-0.492,1.574-0.947,2.396-1.365
			c0.822-0.418,1.664-0.796,2.525-1.135c0.861-0.339,1.738-0.637,2.63-0.894c0.892-0.257,1.795-0.472,2.709-0.645
			c0.914-0.173,1.835-0.303,2.763-0.39c0.928-0.087,1.858-0.13,2.79-0.13c0.932,0,1.862,0.043,2.79,0.13
			c0.928,0.087,1.849,0.217,2.763,0.39c0.914,0.173,1.817,0.388,2.709,0.645c0.892,0.257,1.769,0.555,2.63,0.894
			c0.861,0.339,1.703,0.718,2.525,1.135c0.822,0.418,1.621,0.873,2.396,1.365c0.775,0.492,1.523,1.02,2.243,1.582
			c0.721,0.562,1.41,1.157,2.07,1.783c0.659,0.627,1.284,1.282,1.876,1.967c0.591,0.685,1.146,1.396,1.664,2.133
			c0.518,0.737,0.997,1.496,1.436,2.277c0.439,0.781,0.837,1.582,1.194,2.4c0.357,0.819,0.67,1.652,0.941,2.5
			s0.497,1.707,0.679,2.576c0.182,0.869,0.318,1.745,0.41,2.626C177.665,438.256,177.711,439.14,177.711,440.026z"/>
	</g>
	<g id="path-2-2_00000112597406481202223310000014574068172644396690_">
		<path fill="#DD5555" d="M564.257,221.332c0,0.886-0.046,1.77-0.137,2.652c-0.091,0.882-0.228,1.757-0.41,2.627
			c-0.182,0.869-0.408,1.728-0.679,2.576c-0.271,0.848-0.584,1.681-0.941,2.5c-0.357,0.819-0.755,1.619-1.194,2.4
			c-0.439,0.781-0.918,1.541-1.436,2.277c-0.518,0.737-1.072,1.448-1.664,2.133c-0.591,0.685-1.217,1.341-1.876,1.967
			c-0.659,0.627-1.349,1.221-2.07,1.783s-1.468,1.089-2.244,1.582c-0.775,0.492-1.574,0.947-2.396,1.365
			c-0.822,0.418-1.664,0.796-2.525,1.135c-0.861,0.339-1.738,0.637-2.63,0.895c-0.892,0.257-1.795,0.472-2.71,0.645
			c-0.914,0.173-1.835,0.303-2.763,0.39s-1.858,0.13-2.79,0.13s-1.862-0.043-2.79-0.13c-0.928-0.087-1.849-0.217-2.763-0.39
			c-0.914-0.173-1.817-0.388-2.709-0.645c-0.892-0.257-1.769-0.555-2.63-0.895c-0.861-0.339-1.703-0.718-2.525-1.135
			c-0.822-0.418-1.621-0.873-2.396-1.365c-0.775-0.492-1.523-1.02-2.243-1.582c-0.721-0.562-1.41-1.157-2.07-1.783
			c-0.659-0.627-1.284-1.282-1.876-1.967c-0.591-0.685-1.146-1.396-1.664-2.133s-0.997-1.496-1.436-2.277s-0.837-1.582-1.194-2.4
			c-0.357-0.819-0.67-1.652-0.941-2.5c-0.271-0.848-0.497-1.707-0.679-2.576c-0.182-0.869-0.318-1.745-0.41-2.627
			c-0.091-0.882-0.137-1.766-0.137-2.652c0-0.886,0.046-1.77,0.137-2.652c0.091-0.882,0.228-1.757,0.41-2.627
			c0.182-0.869,0.408-1.728,0.679-2.576c0.271-0.848,0.584-1.681,0.941-2.5c0.357-0.819,0.755-1.619,1.194-2.4
			c0.439-0.781,0.918-1.541,1.436-2.277c0.518-0.737,1.073-1.448,1.664-2.133c0.591-0.685,1.217-1.341,1.876-1.967
			c0.659-0.627,1.349-1.221,2.07-1.783c0.721-0.562,1.468-1.089,2.243-1.582c0.775-0.492,1.574-0.947,2.396-1.365
			c0.822-0.418,1.664-0.796,2.525-1.135c0.861-0.339,1.738-0.637,2.63-0.894c0.892-0.257,1.795-0.472,2.709-0.645
			c0.914-0.173,1.835-0.303,2.763-0.39c0.928-0.087,1.858-0.13,2.79-0.13c0.932,0,1.862,0.043,2.79,0.13
			c0.928,0.087,1.849,0.217,2.763,0.39c0.914,0.173,1.818,0.388,2.71,0.645c0.892,0.257,1.769,0.555,2.63,0.894
			c0.861,0.339,1.703,0.718,2.525,1.135c0.822,0.418,1.621,0.873,2.396,1.365c0.775,0.492,1.523,1.02,2.244,1.582
			s1.41,1.157,2.07,1.783c0.659,0.627,1.284,1.282,1.876,1.967c0.591,0.685,1.146,1.396,1.664,2.133
			c0.518,0.737,0.997,1.496,1.436,2.277c0.439,0.781,0.838,1.582,1.194,2.4c0.357,0.819,0.67,1.652,0.941,2.5
			c0.271,0.848,0.497,1.707,0.679,2.576c0.182,0.869,0.318,1.745,0.41,2.626C564.211,219.561,564.257,220.445,564.257,221.332z"/>
		<path fill="#5555DD" d="M549.908,221.49c0,0.444-0.023,0.888-0.068,1.33c-0.046,0.442-0.114,0.881-0.205,1.317
			c-0.091,0.436-0.204,0.866-0.339,1.292c-0.135,0.425-0.292,0.843-0.47,1.254c-0.178,0.411-0.377,0.812-0.597,1.204
			c-0.22,0.392-0.459,0.773-0.718,1.142c-0.259,0.37-0.536,0.726-0.831,1.07c-0.296,0.344-0.608,0.672-0.937,0.987
			s-0.674,0.612-1.034,0.894c-0.36,0.282-0.734,0.546-1.121,0.793c-0.387,0.247-0.786,0.475-1.197,0.685
			c-0.411,0.209-0.831,0.399-1.262,0.569c-0.43,0.17-0.868,0.32-1.314,0.449c-0.446,0.129-0.897,0.237-1.354,0.324
			c-0.457,0.087-0.917,0.152-1.381,0.195c-0.464,0.044-0.928,0.065-1.394,0.065s-0.931-0.022-1.394-0.065
			c-0.464-0.044-0.924-0.109-1.381-0.195c-0.457-0.087-0.908-0.195-1.354-0.323c-0.446-0.129-0.884-0.279-1.314-0.449
			c-0.43-0.17-0.851-0.36-1.262-0.569s-0.81-0.438-1.197-0.685c-0.387-0.247-0.761-0.511-1.121-0.793
			c-0.36-0.282-0.705-0.58-1.034-0.894c-0.329-0.314-0.642-0.643-0.937-0.987c-0.296-0.344-0.573-0.7-0.831-1.07
			c-0.259-0.37-0.498-0.75-0.718-1.142c-0.22-0.392-0.419-0.793-0.597-1.204c-0.178-0.411-0.335-0.828-0.47-1.254
			c-0.135-0.425-0.248-0.856-0.339-1.292c-0.091-0.436-0.159-0.875-0.205-1.317c-0.046-0.442-0.069-0.886-0.069-1.33
			c0-0.444,0.023-0.888,0.069-1.33c0.046-0.442,0.114-0.881,0.205-1.317c0.091-0.436,0.204-0.866,0.339-1.292
			c0.135-0.425,0.292-0.843,0.47-1.254c0.178-0.411,0.377-0.812,0.597-1.204c0.22-0.392,0.459-0.773,0.718-1.142
			c0.259-0.37,0.536-0.726,0.831-1.07c0.296-0.344,0.608-0.672,0.937-0.987c0.329-0.314,0.674-0.612,1.034-0.894
			c0.36-0.282,0.734-0.546,1.121-0.793c0.387-0.247,0.786-0.475,1.197-0.685s0.831-0.399,1.262-0.569
			c0.43-0.17,0.868-0.32,1.314-0.449c0.446-0.129,0.897-0.237,1.354-0.324c0.457-0.087,0.917-0.152,1.381-0.195
			c0.464-0.044,0.928-0.065,1.394-0.065s0.931,0.022,1.394,0.065c0.464,0.044,0.924,0.109,1.381,0.195
			c0.457,0.087,0.908,0.195,1.354,0.324c0.446,0.129,0.884,0.279,1.314,0.449c0.43,0.17,0.851,0.36,1.262,0.569
			s0.81,0.438,1.197,0.685c0.387,0.247,0.761,0.511,1.121,0.793s0.705,0.58,1.034,0.894c0.329,0.314,0.642,0.643,0.937,0.987
			c0.296,0.344,0.573,0.7,0.831,1.07c0.259,0.37,0.498,0.75,0.718,1.142c0.22,0.392,0.419,0.793,0.597,1.204
			c0.178,0.411,0.335,0.829,0.47,1.254c0.135,0.425,0.248,0.856,0.339,1.292c0.091,0.436,0.159,0.875,0.205,1.317
			S549.908,221.045,549.908,221.49z"/>
		<rect x="467.172" y="24.571" fill="none" width="356.393" height="247.363"/>
		<path fill="none" stroke="#FFFFFF" stroke-width="1.5013" d="M536.485,174.071h-3.271h6.542H536.485v93.663h-3.271h6.542
			 M471.328,220.903v-3.411v6.823V220.903h130.313v-3.411v6.823"/>
	</g>
	<g id="path-2-1_00000084525902383052367240000012963500271426383759_">
		<path fill="#DD5555" d="M423.447,303.331c0,0.886-0.046,1.77-0.137,2.652c-0.091,0.882-0.228,1.757-0.41,2.627
			c-0.182,0.869-0.408,1.728-0.679,2.576c-0.271,0.848-0.584,1.681-0.941,2.5c-0.357,0.819-0.755,1.619-1.194,2.4
			c-0.439,0.782-0.918,1.541-1.436,2.277c-0.518,0.737-1.072,1.448-1.664,2.133c-0.591,0.685-1.217,1.341-1.876,1.967
			c-0.659,0.627-1.349,1.221-2.07,1.783s-1.468,1.089-2.244,1.582c-0.775,0.492-1.574,0.947-2.396,1.365
			c-0.822,0.418-1.664,0.796-2.525,1.135s-1.738,0.637-2.63,0.895c-0.892,0.257-1.795,0.472-2.709,0.645
			c-0.914,0.173-1.835,0.303-2.763,0.39s-1.858,0.13-2.79,0.13c-0.932,0-1.862-0.043-2.79-0.13c-0.928-0.087-1.849-0.217-2.763-0.39
			c-0.914-0.173-1.817-0.388-2.709-0.645c-0.892-0.257-1.769-0.555-2.63-0.895c-0.861-0.339-1.703-0.718-2.525-1.135
			c-0.822-0.418-1.621-0.873-2.396-1.365c-0.775-0.492-1.523-1.02-2.243-1.582c-0.721-0.562-1.41-1.157-2.07-1.783
			c-0.659-0.627-1.284-1.282-1.876-1.967c-0.591-0.685-1.146-1.396-1.664-2.133c-0.518-0.737-0.996-1.496-1.436-2.277
			c-0.439-0.782-0.838-1.582-1.194-2.4s-0.67-1.652-0.941-2.5c-0.271-0.848-0.497-1.707-0.679-2.576
			c-0.182-0.869-0.318-1.745-0.41-2.627c-0.091-0.882-0.137-1.766-0.137-2.652c0-0.886,0.046-1.77,0.137-2.652
			c0.091-0.882,0.228-1.757,0.41-2.627c0.182-0.869,0.408-1.728,0.679-2.576c0.271-0.848,0.584-1.681,0.941-2.5
			c0.357-0.819,0.755-1.619,1.194-2.4c0.439-0.781,0.918-1.541,1.436-2.277c0.518-0.737,1.073-1.448,1.664-2.133
			c0.591-0.685,1.217-1.341,1.876-1.967c0.659-0.627,1.349-1.221,2.07-1.783c0.721-0.562,1.468-1.089,2.243-1.582
			c0.775-0.492,1.574-0.947,2.396-1.365c0.822-0.418,1.664-0.796,2.525-1.135c0.861-0.339,1.738-0.637,2.63-0.895
			c0.892-0.257,1.795-0.472,2.709-0.645c0.914-0.173,1.835-0.303,2.763-0.39c0.928-0.087,1.858-0.13,2.79-0.13
			c0.932,0,1.862,0.043,2.79,0.13s1.849,0.217,2.763,0.39c0.914,0.173,1.817,0.388,2.709,0.645c0.892,0.257,1.769,0.555,2.63,0.895
			c0.861,0.339,1.703,0.718,2.525,1.135c0.822,0.418,1.621,0.873,2.396,1.365c0.775,0.492,1.523,1.02,2.243,1.582
			s1.41,1.157,2.07,1.783c0.659,0.627,1.284,1.282,1.876,1.967c0.591,0.685,1.146,1.396,1.664,2.133
			c0.518,0.737,0.997,1.496,1.436,2.277c0.439,0.781,0.838,1.582,1.194,2.4c0.357,0.819,0.67,1.652,0.941,2.5
			c0.271,0.848,0.497,1.707,0.679,2.576c0.182,0.869,0.318,1.745,0.41,2.626C423.401,301.561,423.447,302.445,423.447,303.331z"/>
		<path fill="#5555DD" d="M415.307,303.331c0,0.633-0.033,1.264-0.098,1.894c-0.065,0.63-0.163,1.255-0.293,1.875
			c-0.13,0.621-0.291,1.234-0.485,1.839c-0.193,0.605-0.417,1.2-0.672,1.785c-0.255,0.585-0.539,1.156-0.853,1.714
			c-0.314,0.558-0.656,1.1-1.025,1.626c-0.37,0.526-0.766,1.034-1.188,1.523c-0.422,0.489-0.869,0.957-1.339,1.405
			c-0.471,0.447-0.963,0.872-1.478,1.273c-0.514,0.401-1.048,0.778-1.602,1.129s-1.124,0.676-1.711,0.975
			c-0.587,0.298-1.188,0.568-1.803,0.811c-0.615,0.242-1.241,0.455-1.878,0.639c-0.637,0.184-1.282,0.337-1.935,0.461
			c-0.653,0.124-1.31,0.216-1.973,0.278c-0.662,0.062-1.326,0.093-1.992,0.093c-0.666,0-1.329-0.031-1.992-0.093
			c-0.662-0.062-1.32-0.155-1.973-0.278c-0.653-0.123-1.298-0.277-1.935-0.461c-0.637-0.184-1.263-0.397-1.878-0.639
			c-0.615-0.242-1.216-0.512-1.803-0.811c-0.587-0.298-1.157-0.623-1.711-0.975c-0.553-0.352-1.087-0.728-1.602-1.129
			c-0.514-0.401-1.007-0.826-1.478-1.273c-0.471-0.447-0.917-0.916-1.339-1.405c-0.422-0.489-0.818-0.997-1.188-1.523
			s-0.712-1.068-1.025-1.626c-0.314-0.558-0.598-1.129-0.853-1.714c-0.255-0.585-0.479-1.18-0.672-1.785s-0.355-1.219-0.485-1.839
			c-0.13-0.621-0.227-1.246-0.293-1.875c-0.065-0.63-0.098-1.261-0.098-1.894c0-0.633,0.033-1.264,0.098-1.894
			c0.065-0.63,0.163-1.255,0.293-1.875c0.13-0.621,0.291-1.234,0.485-1.839s0.417-1.201,0.672-1.785
			c0.255-0.585,0.539-1.156,0.853-1.714c0.314-0.558,0.655-1.1,1.025-1.626c0.37-0.526,0.766-1.034,1.188-1.523
			c0.422-0.489,0.869-0.957,1.339-1.405c0.471-0.447,0.963-0.872,1.478-1.273c0.514-0.401,1.048-0.778,1.602-1.129
			c0.553-0.352,1.124-0.676,1.711-0.975c0.587-0.298,1.188-0.568,1.803-0.811c0.615-0.242,1.241-0.455,1.878-0.639
			c0.637-0.184,1.282-0.337,1.935-0.461c0.653-0.123,1.31-0.216,1.973-0.278c0.662-0.062,1.326-0.093,1.992-0.093
			c0.666,0,1.33,0.031,1.992,0.093c0.662,0.062,1.32,0.155,1.973,0.278c0.653,0.123,1.298,0.277,1.935,0.461
			c0.637,0.184,1.263,0.397,1.878,0.639c0.615,0.242,1.216,0.512,1.803,0.811s1.157,0.623,1.711,0.975s1.087,0.728,1.602,1.129
			c0.514,0.401,1.007,0.826,1.478,1.273c0.471,0.447,0.917,0.916,1.339,1.405c0.422,0.489,0.818,0.997,1.188,1.523
			c0.37,0.526,0.712,1.068,1.025,1.626c0.314,0.558,0.598,1.129,0.853,1.714c0.255,0.585,0.479,1.18,0.672,1.785
			c0.193,0.605,0.355,1.219,0.485,1.839c0.13,0.621,0.227,1.246,0.293,1.875C415.274,302.067,415.307,302.698,415.307,303.331z"/>
		<rect x="352.13" y="168.284" fill="none" width="223.759" height="171.57"/>
		<path fill="none" stroke="#FFFFFF" stroke-width="1.5013" d="M395.647,271.977h-2.054h4.107H395.647v64.964h-2.054h4.107
			 M354.739,304.459v-2.366v4.732V304.459h81.816v-2.366v4.732"/>
	</g>
</g>
<style>
#g-Impacts-of-global-warming-on-glaciers-and-sea-level-rise-Artboard_2-interactive-img rect, #g-Impacts-of-global-warming-on-glaciers-and-sea-level-rise-Artboard_2-interactive-img circle, #g-Impacts-of-global-warming-on-glaciers-and-sea-level-rise-Artboard_2-interactive-img path, #g-Impacts-of-global-warming-on-glaciers-and-sea-level-rise-Artboard_2-interactive-img line, #g-Impacts-of-global-warming-on-glaciers-and-sea-level-rise-Artboard_2-interactive-img polyline, #g-Impacts-of-global-warming-on-glaciers-and-sea-level-rise-Artboard_2-interactive-img polygon { vector-effect: non-scaling-stroke; }
</style>
</svg>

