<?xml version="1.0" encoding="utf-8"?>
<!-- Generator: Adobe Illustrator 27.0.0, SVG Export Plug-In . SVG Version: 6.00 Build 0)  -->
<svg version="1.2" baseProfile="tiny" id="g-Impacts-of-global-warming-on-glaciers-and-sea-level-rise-Artboard_4-interactive-img" xmlns="http://www.w3.org/2000/svg" xmlns:xlink="http://www.w3.org/1999/xlink"
	 x="0px" y="0px" viewBox="0 0 1157.043 727" overflow="visible" xml:space="preserve">
<g>
	<g id="path-1-3_00000078012031923507742810000009283455710982344116_">
		<path fill="#5555DD" d="M350.489,549.037c0,1.121-0.06,2.24-0.181,3.356c-0.12,1.116-0.3,2.224-0.54,3.323
			c-0.24,1.1-0.538,2.186-0.894,3.259c-0.356,1.073-0.77,2.128-1.24,3.163c-0.47,1.036-0.994,2.048-1.573,3.037
			c-0.579,0.989-1.21,1.95-1.892,2.882c-0.682,0.932-1.413,1.832-2.192,2.699c-0.779,0.867-1.603,1.697-2.471,2.49
			c-0.868,0.793-1.777,1.545-2.727,2.256c-0.949,0.711-1.935,1.378-2.956,2.001c-1.021,0.623-2.073,1.199-3.156,1.727
			c-1.083,0.529-2.192,1.007-3.327,1.436c-1.135,0.429-2.289,0.806-3.465,1.132s-2.365,0.598-3.57,0.816
			c-1.204,0.219-2.418,0.383-3.64,0.493c-1.222,0.11-2.447,0.165-3.675,0.165s-2.453-0.055-3.675-0.165
			c-1.222-0.11-2.436-0.274-3.64-0.493c-1.204-0.219-2.394-0.491-3.57-0.816c-1.175-0.326-2.33-0.703-3.465-1.132
			c-1.135-0.429-2.243-0.908-3.327-1.436c-1.083-0.529-2.135-1.104-3.156-1.727c-1.021-0.623-2.006-1.29-2.956-2.001
			c-0.949-0.711-1.858-1.463-2.727-2.256c-0.868-0.793-1.692-1.623-2.471-2.49c-0.779-0.867-1.51-1.766-2.192-2.699
			c-0.682-0.932-1.313-1.893-1.892-2.882c-0.579-0.989-1.103-2.001-1.573-3.037c-0.47-1.036-0.883-2.09-1.24-3.163
			c-0.356-1.073-0.655-2.159-0.894-3.259c-0.24-1.1-0.42-2.208-0.54-3.323c-0.12-1.116-0.181-2.234-0.181-3.356
			s0.06-2.24,0.181-3.356c0.12-1.116,0.3-2.224,0.54-3.323s0.538-2.186,0.894-3.259c0.357-1.073,0.77-2.128,1.24-3.163
			s0.994-2.048,1.573-3.037c0.579-0.989,1.209-1.949,1.892-2.882c0.682-0.932,1.413-1.832,2.192-2.699
			c0.779-0.867,1.603-1.697,2.471-2.489c0.868-0.793,1.777-1.545,2.727-2.256c0.949-0.711,1.935-1.378,2.956-2.001
			s2.073-1.199,3.156-1.727c1.083-0.529,2.192-1.007,3.327-1.436c1.135-0.429,2.289-0.806,3.465-1.132
			c1.175-0.326,2.365-0.598,3.57-0.816c1.204-0.219,2.418-0.383,3.64-0.493c1.222-0.11,2.447-0.165,3.675-0.165
			s2.453,0.055,3.675,0.165c1.222,0.11,2.435,0.274,3.64,0.493c1.204,0.219,2.394,0.491,3.57,0.816
			c1.175,0.325,2.33,0.703,3.465,1.132c1.135,0.429,2.243,0.908,3.327,1.437s2.135,1.104,3.156,1.727s2.006,1.29,2.956,2.001
			c0.949,0.711,1.858,1.464,2.727,2.256s1.692,1.623,2.471,2.489c0.779,0.867,1.51,1.766,2.192,2.699
			c0.682,0.932,1.313,1.893,1.892,2.882c0.579,0.989,1.103,2.001,1.573,3.037c0.47,1.036,0.883,2.09,1.24,3.163
			c0.356,1.073,0.655,2.159,0.894,3.259s0.42,2.208,0.54,3.323C350.429,546.797,350.489,547.915,350.489,549.037z"/>
		<path fill="#5555DD" d="M987.948,188.418l6.355-3.329l1.101,1.729l-6.355,3.329 M962.529,201.734l6.355-3.329l1.101,1.729
			l-6.355,3.329 M937.109,215.05l6.355-3.329l1.101,1.729l-6.355,3.329 M911.69,228.367l6.355-3.329l1.101,1.729l-6.355,3.329
			 M886.271,241.683l6.355-3.329l1.101,1.729l-6.355,3.329 M860.851,254.999l6.355-3.329l1.101,1.729l-6.355,3.329 M835.432,268.315
			l6.355-3.329l1.101,1.729l-6.355,3.329 M810.012,281.632l6.355-3.329l1.101,1.729l-6.355,3.329 M784.593,294.948l6.355-3.329
			l1.101,1.729l-6.355,3.329 M759.174,308.264l6.355-3.329l1.101,1.729l-6.355,3.329 M733.754,321.58l6.355-3.329l1.101,1.729
			l-6.355,3.329 M708.335,334.897l6.355-3.329l1.101,1.729l-6.355,3.329 M682.915,348.213l6.355-3.329l1.101,1.729l-6.355,3.329
			 M657.496,361.529l6.355-3.329l1.101,1.729l-6.355,3.329 M632.076,374.846l6.355-3.329l1.101,1.729l-6.355,3.329 M606.657,388.162
			l6.355-3.329l1.101,1.729l-6.355,3.329 M581.238,401.478l6.355-3.329l1.101,1.729l-6.355,3.329 M555.818,414.794l6.355-3.329
			l1.101,1.729l-6.355,3.329 M530.399,428.111l6.355-3.329l1.101,1.729l-6.355,3.329 M504.979,441.427l6.355-3.329l1.101,1.729
			l-6.355,3.329 M479.56,454.743l6.355-3.329l1.101,1.729l-6.355,3.329 M454.141,468.059l6.355-3.329l1.101,1.729l-6.355,3.329
			 M428.721,481.376l6.355-3.329l1.101,1.729l-6.355,3.329 M403.302,494.692l6.355-3.329l1.101,1.729l-6.355,3.329 M377.882,508.008
			l6.355-3.329l1.101,1.729l-6.355,3.329 M352.463,521.324l6.355-3.329l1.101,1.729l-6.355,3.329 M327.043,534.641l6.355-3.329
			l1.101,1.729l-6.355,3.329"/>
		<path fill="none" stroke="#5555DD" stroke-width="0.5004" d="M350.489,549.037c0,1.121-0.06,2.24-0.181,3.356
			c-0.12,1.116-0.3,2.224-0.54,3.323c-0.24,1.1-0.538,2.186-0.894,3.259c-0.356,1.073-0.77,2.128-1.24,3.163
			c-0.47,1.036-0.994,2.048-1.573,3.037c-0.579,0.989-1.21,1.95-1.892,2.882c-0.682,0.932-1.413,1.832-2.192,2.699
			c-0.779,0.867-1.603,1.697-2.471,2.49c-0.868,0.793-1.777,1.545-2.727,2.256c-0.949,0.711-1.935,1.378-2.956,2.001
			c-1.021,0.623-2.073,1.199-3.156,1.727c-1.083,0.529-2.192,1.007-3.327,1.436c-1.135,0.429-2.289,0.806-3.465,1.132
			s-2.365,0.598-3.57,0.816c-1.204,0.219-2.418,0.383-3.64,0.493c-1.222,0.11-2.447,0.165-3.675,0.165s-2.453-0.055-3.675-0.165
			c-1.222-0.11-2.436-0.274-3.64-0.493c-1.204-0.219-2.394-0.491-3.57-0.816c-1.175-0.326-2.33-0.703-3.465-1.132
			c-1.135-0.429-2.243-0.908-3.327-1.436c-1.083-0.529-2.135-1.104-3.156-1.727c-1.021-0.623-2.006-1.29-2.956-2.001
			c-0.949-0.711-1.858-1.463-2.727-2.256c-0.868-0.793-1.692-1.623-2.471-2.49c-0.779-0.867-1.51-1.766-2.192-2.699
			c-0.682-0.932-1.313-1.893-1.892-2.882c-0.579-0.989-1.103-2.001-1.573-3.037c-0.47-1.036-0.883-2.09-1.24-3.163
			c-0.356-1.073-0.655-2.159-0.894-3.259c-0.24-1.1-0.42-2.208-0.54-3.323c-0.12-1.116-0.181-2.234-0.181-3.356
			s0.06-2.24,0.181-3.356c0.12-1.116,0.3-2.224,0.54-3.323s0.538-2.186,0.894-3.259c0.357-1.073,0.77-2.128,1.24-3.163
			s0.994-2.048,1.573-3.037c0.579-0.989,1.209-1.949,1.892-2.882c0.682-0.932,1.413-1.832,2.192-2.699
			c0.779-0.867,1.603-1.697,2.471-2.489c0.868-0.793,1.777-1.545,2.727-2.256c0.949-0.711,1.935-1.378,2.956-2.001
			s2.073-1.199,3.156-1.727c1.083-0.529,2.192-1.007,3.327-1.436c1.135-0.429,2.289-0.806,3.465-1.132
			c1.175-0.326,2.365-0.598,3.57-0.816c1.204-0.219,2.418-0.383,3.64-0.493c1.222-0.11,2.447-0.165,3.675-0.165
			s2.453,0.055,3.675,0.165c1.222,0.11,2.435,0.274,3.64,0.493c1.204,0.219,2.394,0.491,3.57,0.816
			c1.175,0.325,2.33,0.703,3.465,1.132c1.135,0.429,2.243,0.908,3.327,1.437s2.135,1.104,3.156,1.727s2.006,1.29,2.956,2.001
			c0.949,0.711,1.858,1.464,2.727,2.256s1.692,1.623,2.471,2.489c0.779,0.867,1.51,1.766,2.192,2.699
			c0.682,0.932,1.313,1.893,1.892,2.882c0.579,0.989,1.103,2.001,1.573,3.037c0.47,1.036,0.883,2.09,1.24,3.163
			c0.356,1.073,0.655,2.159,0.894,3.259s0.42,2.208,0.54,3.323C350.429,546.797,350.489,547.915,350.489,549.037z"/>
	</g>
	<g id="path-1-2_00000027581199886215942900000006178351188469165988_">
		<path fill="#DD5555" d="M856.015,270.292c0,1.121-0.06,2.24-0.181,3.356c-0.12,1.116-0.3,2.224-0.54,3.323
			c-0.24,1.1-0.538,2.186-0.894,3.259c-0.357,1.073-0.77,2.127-1.24,3.163c-0.47,1.036-0.994,2.048-1.573,3.037
			c-0.579,0.989-1.21,1.949-1.892,2.882c-0.682,0.932-1.413,1.832-2.192,2.699c-0.779,0.867-1.603,1.697-2.471,2.49
			c-0.868,0.793-1.777,1.545-2.727,2.256s-1.935,1.378-2.956,2.001c-1.021,0.623-2.073,1.199-3.156,1.727
			c-1.083,0.529-2.192,1.007-3.327,1.437c-1.135,0.429-2.289,0.806-3.465,1.132c-1.175,0.325-2.365,0.598-3.57,0.816
			c-1.204,0.219-2.418,0.383-3.64,0.493c-1.222,0.11-2.447,0.165-3.675,0.165s-2.453-0.055-3.675-0.165
			c-1.222-0.11-2.436-0.274-3.64-0.493c-1.204-0.219-2.394-0.491-3.57-0.816c-1.175-0.326-2.33-0.703-3.465-1.132
			c-1.135-0.429-2.243-0.908-3.326-1.437c-1.083-0.529-2.135-1.104-3.156-1.727c-1.021-0.623-2.006-1.29-2.956-2.001
			c-0.949-0.711-1.858-1.463-2.727-2.256c-0.868-0.793-1.692-1.623-2.471-2.49c-0.779-0.867-1.51-1.766-2.192-2.699
			c-0.682-0.932-1.313-1.893-1.892-2.882c-0.579-0.989-1.103-2.001-1.573-3.037c-0.47-1.036-0.883-2.09-1.24-3.163
			c-0.357-1.073-0.655-2.159-0.894-3.259c-0.24-1.1-0.419-2.208-0.54-3.323c-0.12-1.116-0.181-2.234-0.181-3.356
			c0-1.121,0.06-2.24,0.181-3.356c0.12-1.116,0.3-2.224,0.54-3.323c0.24-1.1,0.538-2.186,0.894-3.259
			c0.357-1.073,0.77-2.127,1.24-3.163c0.47-1.036,0.995-2.048,1.573-3.037c0.579-0.989,1.209-1.95,1.892-2.882
			c0.682-0.932,1.413-1.832,2.192-2.699c0.779-0.867,1.603-1.697,2.471-2.49c0.868-0.793,1.777-1.545,2.727-2.256
			c0.949-0.711,1.935-1.378,2.956-2.001c1.021-0.623,2.073-1.199,3.156-1.727c1.083-0.529,2.192-1.007,3.326-1.437
			c1.135-0.429,2.29-0.806,3.465-1.132c1.175-0.326,2.365-0.598,3.57-0.816c1.205-0.219,2.418-0.383,3.64-0.493
			c1.222-0.11,2.447-0.165,3.675-0.165c1.228,0,2.453,0.055,3.675,0.165c1.222,0.11,2.435,0.274,3.64,0.493
			c1.205,0.219,2.394,0.491,3.57,0.816c1.175,0.325,2.33,0.703,3.465,1.132c1.135,0.429,2.243,0.908,3.327,1.437
			c1.083,0.529,2.135,1.104,3.156,1.727c1.021,0.623,2.006,1.29,2.956,2.001s1.858,1.463,2.727,2.256
			c0.868,0.793,1.692,1.623,2.471,2.49c0.779,0.867,1.51,1.766,2.192,2.699c0.682,0.932,1.313,1.893,1.892,2.882
			c0.579,0.989,1.103,2.001,1.573,3.037c0.47,1.036,0.883,2.09,1.24,3.163c0.357,1.073,0.655,2.159,0.894,3.259
			c0.24,1.1,0.42,2.207,0.54,3.323C855.955,268.052,856.015,269.171,856.015,270.292z"/>
		<path fill="#5555DD" d="M837.112,270.492c0,0.562-0.03,1.123-0.09,1.683c-0.06,0.56-0.15,1.115-0.27,1.667
			c-0.12,0.552-0.269,1.096-0.447,1.635s-0.385,1.067-0.62,1.586c-0.235,0.52-0.497,1.027-0.786,1.523
			c-0.289,0.496-0.604,0.978-0.945,1.445c-0.341,0.468-0.706,0.919-1.095,1.353c-0.389,0.435-0.801,0.851-1.235,1.249
			s-0.888,0.775-1.363,1.132s-0.967,0.691-1.477,1.004s-1.036,0.601-1.577,0.866c-0.541,0.265-1.095,0.505-1.662,0.72
			c-0.567,0.215-1.144,0.404-1.731,0.568c-0.587,0.163-1.182,0.3-1.784,0.409c-0.602,0.11-1.208,0.192-1.819,0.247
			c-0.611,0.055-1.223,0.083-1.837,0.083s-1.226-0.028-1.837-0.083s-1.217-0.138-1.819-0.247c-0.602-0.11-1.197-0.246-1.784-0.409
			c-0.587-0.163-1.164-0.353-1.731-0.568c-0.567-0.215-1.121-0.455-1.662-0.72c-0.541-0.265-1.067-0.554-1.577-0.866
			c-0.51-0.312-1.003-0.647-1.477-1.004c-0.474-0.357-0.929-0.734-1.363-1.132c-0.434-0.398-0.846-0.814-1.235-1.248
			c-0.389-0.435-0.755-0.886-1.095-1.353c-0.341-0.468-0.656-0.949-0.945-1.445c-0.289-0.496-0.551-1.004-0.786-1.523
			c-0.235-0.52-0.441-1.048-0.62-1.586s-0.327-1.083-0.447-1.635c-0.12-0.552-0.21-1.107-0.27-1.667
			c-0.06-0.56-0.09-1.121-0.09-1.683s0.03-1.123,0.09-1.683c0.06-0.56,0.15-1.115,0.27-1.667c0.12-0.551,0.269-1.096,0.447-1.634
			s0.385-1.067,0.62-1.587s0.497-1.027,0.786-1.523c0.289-0.496,0.604-0.978,0.945-1.445c0.341-0.468,0.706-0.919,1.095-1.353
			c0.389-0.435,0.801-0.851,1.235-1.249s0.888-0.775,1.363-1.132c0.474-0.357,0.967-0.691,1.477-1.004
			c0.51-0.312,1.036-0.601,1.577-0.866s1.095-0.505,1.662-0.72s1.144-0.404,1.731-0.568s1.182-0.3,1.784-0.409
			c0.602-0.11,1.208-0.192,1.819-0.247c0.611-0.055,1.223-0.083,1.837-0.083s1.226,0.028,1.837,0.083
			c0.611,0.055,1.217,0.138,1.819,0.247c0.602,0.11,1.197,0.246,1.784,0.409c0.587,0.163,1.164,0.352,1.731,0.568
			c0.567,0.215,1.121,0.455,1.662,0.72c0.541,0.265,1.067,0.554,1.577,0.866c0.51,0.312,1.003,0.647,1.477,1.004
			s0.929,0.734,1.363,1.132s0.846,0.814,1.235,1.249c0.389,0.435,0.755,0.886,1.095,1.353c0.341,0.468,0.656,0.949,0.945,1.445
			c0.289,0.496,0.551,1.004,0.786,1.523s0.441,1.048,0.62,1.587s0.327,1.083,0.447,1.634c0.12,0.552,0.21,1.107,0.27,1.667
			C837.082,269.369,837.112,269.93,837.112,270.492z"/>
		<path fill="none" stroke="#000000" stroke-width="1.5013" d="M819.427,210.492h-4.309h8.619H819.427v118.517h-4.309h8.619
			 M733.587,269.75v-4.317v8.633V269.75h171.68v-4.317v8.633"/>
	</g>
	<g id="path-1-1_00000165209920978725209080000006068969347392095924_">
		<rect x="585.776" y="192.644" fill="none" width="294.79" height="217.096"/>
		<path fill="#DD5555" d="M679.732,363.525c0,1.121-0.06,2.24-0.181,3.356c-0.12,1.116-0.3,2.224-0.54,3.323
			s-0.538,2.186-0.894,3.259c-0.357,1.073-0.77,2.128-1.24,3.163c-0.47,1.036-0.994,2.048-1.573,3.037
			c-0.579,0.989-1.21,1.949-1.892,2.882c-0.682,0.932-1.413,1.832-2.192,2.699c-0.779,0.867-1.603,1.697-2.471,2.489
			c-0.868,0.793-1.777,1.545-2.727,2.256s-1.935,1.378-2.956,2.001c-1.021,0.623-2.073,1.199-3.156,1.727
			c-1.083,0.529-2.192,1.007-3.327,1.436c-1.135,0.429-2.289,0.806-3.465,1.132c-1.175,0.325-2.365,0.598-3.57,0.816
			c-1.204,0.219-2.418,0.383-3.64,0.493c-1.222,0.11-2.447,0.165-3.675,0.165c-1.228,0-2.453-0.055-3.675-0.165
			c-1.222-0.11-2.436-0.274-3.64-0.493c-1.204-0.219-2.394-0.491-3.57-0.816c-1.175-0.326-2.33-0.703-3.465-1.132
			c-1.135-0.429-2.243-0.908-3.326-1.437c-1.083-0.529-2.135-1.104-3.156-1.727s-2.006-1.29-2.956-2.001
			c-0.949-0.711-1.858-1.463-2.727-2.256c-0.868-0.793-1.692-1.623-2.471-2.49c-0.779-0.867-1.51-1.766-2.192-2.699
			c-0.682-0.932-1.313-1.893-1.892-2.882s-1.103-2.001-1.573-3.037c-0.47-1.036-0.883-2.09-1.24-3.163
			c-0.356-1.073-0.655-2.159-0.894-3.259c-0.24-1.1-0.419-2.207-0.54-3.323c-0.12-1.116-0.181-2.234-0.181-3.356
			c0-1.121,0.06-2.24,0.181-3.356c0.12-1.116,0.3-2.224,0.54-3.323c0.24-1.1,0.538-2.186,0.894-3.259
			c0.356-1.073,0.77-2.127,1.24-3.163s0.994-2.048,1.573-3.037c0.579-0.989,1.209-1.949,1.892-2.882
			c0.682-0.932,1.413-1.832,2.192-2.699c0.779-0.867,1.603-1.697,2.471-2.489c0.868-0.793,1.777-1.545,2.727-2.256
			c0.949-0.711,1.935-1.379,2.956-2.001c1.021-0.623,2.073-1.199,3.156-1.727s2.192-1.007,3.326-1.436
			c1.135-0.429,2.29-0.806,3.465-1.132c1.175-0.326,2.365-0.598,3.57-0.816c1.205-0.219,2.418-0.383,3.64-0.493
			c1.222-0.11,2.447-0.165,3.675-0.165c1.228,0,2.453,0.055,3.675,0.165s2.435,0.274,3.64,0.493c1.204,0.219,2.394,0.491,3.57,0.816
			c1.175,0.326,2.33,0.703,3.465,1.132c1.135,0.429,2.243,0.908,3.327,1.436c1.083,0.529,2.135,1.104,3.156,1.727
			c1.021,0.623,2.006,1.29,2.956,2.001s1.858,1.463,2.727,2.256c0.868,0.793,1.692,1.623,2.471,2.489
			c0.779,0.867,1.51,1.766,2.192,2.699c0.682,0.932,1.313,1.893,1.892,2.882c0.579,0.989,1.103,2.001,1.573,3.037
			c0.47,1.036,0.883,2.09,1.24,3.163c0.356,1.073,0.654,2.159,0.894,3.259c0.24,1.1,0.42,2.207,0.54,3.323
			C679.672,361.285,679.732,362.404,679.732,363.525z"/>
		<path fill="#5555DD" d="M669.008,363.525c0,0.801-0.043,1.599-0.129,2.396c-0.086,0.797-0.214,1.588-0.385,2.373
			c-0.171,0.785-0.384,1.561-0.638,2.327c-0.255,0.766-0.55,1.519-0.885,2.259c-0.336,0.74-0.71,1.463-1.123,2.169
			c-0.413,0.706-0.864,1.392-1.351,2.058s-1.009,1.308-1.565,1.927c-0.556,0.619-1.144,1.211-1.764,1.777
			c-0.62,0.566-1.269,1.103-1.947,1.611c-0.678,0.508-1.381,0.984-2.11,1.429c-0.729,0.445-1.48,0.856-2.254,1.233
			c-0.773,0.377-1.565,0.719-2.375,1.026c-0.81,0.306-1.635,0.576-2.474,0.808c-0.839,0.232-1.689,0.427-2.549,0.583
			c-0.86,0.156-1.726,0.273-2.599,0.352c-0.873,0.078-1.747,0.118-2.624,0.118c-0.877,0-1.752-0.039-2.624-0.118
			c-0.873-0.078-1.739-0.196-2.599-0.352c-0.86-0.156-1.71-0.35-2.549-0.583c-0.839-0.232-1.664-0.502-2.474-0.808
			c-0.81-0.306-1.602-0.648-2.375-1.026c-0.773-0.377-1.525-0.788-2.254-1.233c-0.729-0.445-1.432-0.921-2.11-1.429
			c-0.678-0.508-1.327-1.045-1.947-1.611c-0.62-0.566-1.208-1.159-1.765-1.777c-0.556-0.619-1.078-1.261-1.565-1.927
			c-0.487-0.666-0.937-1.352-1.351-2.058c-0.413-0.706-0.788-1.429-1.123-2.169c-0.336-0.74-0.631-1.492-0.885-2.259
			c-0.255-0.766-0.467-1.542-0.638-2.327c-0.171-0.785-0.299-1.576-0.385-2.373c-0.086-0.797-0.129-1.595-0.129-2.396
			c0-0.801,0.043-1.599,0.129-2.396c0.086-0.797,0.214-1.588,0.385-2.373c0.171-0.785,0.384-1.561,0.638-2.327
			c0.255-0.766,0.55-1.519,0.885-2.259c0.336-0.74,0.71-1.462,1.123-2.169c0.413-0.706,0.863-1.392,1.351-2.058
			c0.487-0.666,1.009-1.308,1.565-1.927c0.556-0.619,1.144-1.211,1.765-1.777c0.62-0.566,1.269-1.103,1.947-1.611
			c0.678-0.508,1.381-0.984,2.11-1.429c0.729-0.445,1.48-0.856,2.254-1.233s1.565-0.719,2.375-1.026
			c0.81-0.306,1.635-0.576,2.474-0.808c0.839-0.232,1.689-0.427,2.549-0.583c0.86-0.156,1.726-0.273,2.599-0.352
			c0.873-0.078,1.747-0.118,2.624-0.118c0.877,0,1.752,0.039,2.624,0.118c0.873,0.079,1.739,0.196,2.599,0.352
			c0.86,0.156,1.71,0.35,2.549,0.583c0.839,0.232,1.664,0.502,2.474,0.808c0.81,0.306,1.602,0.648,2.375,1.026
			s1.524,0.789,2.254,1.233c0.729,0.445,1.433,0.921,2.11,1.429s1.327,1.045,1.947,1.611c0.62,0.566,1.208,1.159,1.764,1.777
			c0.556,0.619,1.078,1.261,1.565,1.927c0.487,0.666,0.937,1.352,1.351,2.058c0.413,0.706,0.788,1.429,1.123,2.169
			c0.336,0.74,0.631,1.493,0.885,2.259c0.255,0.766,0.467,1.542,0.638,2.327c0.171,0.785,0.3,1.576,0.385,2.373
			C668.965,361.926,669.008,362.724,669.008,363.525z"/>
		<path fill="none" stroke="#000000" stroke-width="1.5013" d="M643.108,323.851h-2.706h5.411H643.108v82.203h-2.706h5.411
			 M589.214,364.952v-2.994v5.988V364.952h107.788v-2.994v5.988"/>
	</g>
</g>
<style>
#g-Impacts-of-global-warming-on-glaciers-and-sea-level-rise-Artboard_4-interactive-img rect, #g-Impacts-of-global-warming-on-glaciers-and-sea-level-rise-Artboard_4-interactive-img circle, #g-Impacts-of-global-warming-on-glaciers-and-sea-level-rise-Artboard_4-interactive-img path, #g-Impacts-of-global-warming-on-glaciers-and-sea-level-rise-Artboard_4-interactive-img line, #g-Impacts-of-global-warming-on-glaciers-and-sea-level-rise-Artboard_4-interactive-img polyline, #g-Impacts-of-global-warming-on-glaciers-and-sea-level-rise-Artboard_4-interactive-img polygon { vector-effect: non-scaling-stroke; }
</style>
</svg>

