<?xml version="1.0" encoding="utf-8"?>
<!-- Generator: Adobe Illustrator 27.0.0, SVG Export Plug-In . SVG Version: 6.00 Build 0)  -->
<svg version="1.2" baseProfile="tiny" id="g-Impacts-of-global-warming-on-glaciers-and-sea-level-rise-Artboard_1-interactive-img" xmlns="http://www.w3.org/2000/svg" xmlns:xlink="http://www.w3.org/1999/xlink"
	 x="0px" y="0px" viewBox="0 0 1280 720" overflow="visible" xml:space="preserve">
<g>
	<g id="path-1-3_00000059992177901593414500000000392808088002395272_">
		<path fill="#5555DD" d="M346.446,545.667c0,1.121-0.06,2.24-0.181,3.356c-0.12,1.116-0.3,2.224-0.54,3.323
			s-0.538,2.186-0.894,3.259c-0.356,1.073-0.77,2.128-1.24,3.163c-0.47,1.036-0.994,2.048-1.573,3.037
			c-0.579,0.989-1.21,1.95-1.892,2.882c-0.682,0.932-1.413,1.832-2.192,2.699s-1.603,1.697-2.471,2.489
			c-0.868,0.793-1.777,1.545-2.727,2.256c-0.949,0.711-1.935,1.378-2.956,2.001c-1.021,0.623-2.073,1.199-3.156,1.727
			s-2.192,1.007-3.327,1.436c-1.135,0.429-2.289,0.806-3.465,1.132c-1.175,0.326-2.365,0.598-3.57,0.816
			c-1.204,0.219-2.418,0.383-3.64,0.493c-1.222,0.11-2.447,0.165-3.675,0.165s-2.453-0.055-3.675-0.165
			c-1.222-0.11-2.436-0.274-3.64-0.493c-1.204-0.219-2.394-0.491-3.57-0.816c-1.175-0.326-2.33-0.703-3.465-1.132
			c-1.135-0.429-2.243-0.908-3.327-1.436c-1.083-0.529-2.135-1.104-3.156-1.727c-1.021-0.623-2.006-1.29-2.956-2.001
			c-0.949-0.711-1.858-1.463-2.727-2.256c-0.868-0.793-1.692-1.623-2.471-2.489s-1.51-1.766-2.192-2.699
			c-0.682-0.932-1.313-1.893-1.892-2.882c-0.579-0.989-1.103-2.001-1.573-3.037c-0.47-1.036-0.883-2.09-1.24-3.163
			c-0.356-1.073-0.655-2.159-0.894-3.259s-0.42-2.208-0.54-3.323c-0.12-1.116-0.181-2.234-0.181-3.356s0.06-2.24,0.181-3.356
			c0.12-1.116,0.3-2.224,0.54-3.323s0.538-2.186,0.894-3.259c0.357-1.073,0.77-2.128,1.24-3.163s0.994-2.048,1.573-3.037
			c0.579-0.989,1.21-1.949,1.892-2.882c0.682-0.932,1.413-1.832,2.192-2.699c0.779-0.867,1.603-1.697,2.471-2.489
			c0.868-0.793,1.777-1.545,2.727-2.256c0.949-0.711,1.935-1.378,2.956-2.001c1.021-0.623,2.073-1.199,3.156-1.727
			c1.083-0.529,2.192-1.007,3.327-1.436s2.29-0.806,3.465-1.132c1.175-0.326,2.365-0.598,3.57-0.816
			c1.204-0.219,2.418-0.383,3.64-0.493c1.222-0.11,2.447-0.165,3.675-0.165c1.228,0,2.453,0.055,3.675,0.165
			c1.222,0.11,2.435,0.274,3.64,0.493c1.204,0.219,2.394,0.491,3.57,0.816c1.175,0.325,2.33,0.703,3.465,1.132
			s2.243,0.908,3.327,1.437s2.135,1.104,3.156,1.727s2.006,1.29,2.956,2.001c0.949,0.711,1.858,1.464,2.727,2.256
			c0.868,0.793,1.692,1.623,2.471,2.489s1.51,1.766,2.192,2.699c0.682,0.932,1.313,1.893,1.892,2.882
			c0.579,0.989,1.103,2.001,1.573,3.037s0.883,2.09,1.24,3.163c0.357,1.073,0.655,2.159,0.894,3.259s0.42,2.208,0.54,3.323
			C346.386,543.427,346.446,544.546,346.446,545.667z"/>
		<path fill="#5555DD" d="M983.905,185.048l6.355-3.329l1.101,1.729l-6.355,3.329 M958.485,198.365l6.355-3.329l1.101,1.729
			l-6.355,3.329 M933.066,211.681l6.355-3.329l1.101,1.729l-6.355,3.329 M907.647,224.997l6.355-3.329l1.101,1.729l-6.355,3.329
			 M882.227,238.313l6.355-3.329l1.101,1.729l-6.355,3.329 M856.808,251.63l6.355-3.329l1.101,1.729l-6.355,3.329 M831.388,264.946
			l6.355-3.329l1.101,1.729l-6.355,3.329 M805.969,278.262l6.355-3.329l1.101,1.729l-6.355,3.329 M780.55,291.578l6.355-3.329
			l1.101,1.729l-6.355,3.329 M755.13,304.895l6.355-3.329l1.101,1.729l-6.355,3.329 M729.711,318.211l6.355-3.329l1.101,1.729
			l-6.355,3.329 M704.291,331.527l6.355-3.329l1.101,1.729l-6.355,3.329 M678.872,344.844l6.355-3.329l1.101,1.729l-6.355,3.329
			 M653.452,358.16l6.355-3.329l1.101,1.729l-6.355,3.329 M628.033,371.476l6.355-3.329l1.101,1.729l-6.355,3.329 M602.614,384.792
			l6.355-3.329l1.101,1.729l-6.355,3.329 M577.194,398.109l6.355-3.329l1.101,1.729l-6.355,3.329 M551.775,411.425l6.355-3.329
			l1.101,1.729l-6.355,3.329 M526.355,424.741l6.355-3.329l1.101,1.729l-6.355,3.329 M500.936,438.057l6.355-3.329l1.101,1.729
			l-6.355,3.329 M475.517,451.374l6.355-3.329l1.101,1.729l-6.355,3.329 M450.097,464.69l6.355-3.329l1.101,1.729l-6.355,3.329
			 M424.678,478.006l6.355-3.329l1.101,1.729l-6.355,3.329 M399.258,491.322l6.355-3.329l1.101,1.729l-6.355,3.329 M373.839,504.639
			l6.355-3.329l1.101,1.729l-6.355,3.329 M348.419,517.955l6.355-3.329l1.101,1.729l-6.355,3.329 M323,531.271l6.355-3.329
			l1.101,1.729L324.101,533"/>
		<path fill="none" stroke="#5555DD" stroke-width="0.5004" d="M346.446,545.667c0,1.121-0.06,2.24-0.181,3.356
			c-0.12,1.116-0.3,2.224-0.54,3.323s-0.538,2.186-0.894,3.259c-0.356,1.073-0.77,2.128-1.24,3.163
			c-0.47,1.036-0.994,2.048-1.573,3.037c-0.579,0.989-1.21,1.95-1.892,2.882c-0.682,0.932-1.413,1.832-2.192,2.699
			s-1.603,1.697-2.471,2.489c-0.868,0.793-1.777,1.545-2.727,2.256c-0.949,0.711-1.935,1.378-2.956,2.001
			c-1.021,0.623-2.073,1.199-3.156,1.727s-2.192,1.007-3.327,1.436c-1.135,0.429-2.289,0.806-3.465,1.132
			c-1.175,0.326-2.365,0.598-3.57,0.816c-1.204,0.219-2.418,0.383-3.64,0.493c-1.222,0.11-2.447,0.165-3.675,0.165
			s-2.453-0.055-3.675-0.165c-1.222-0.11-2.436-0.274-3.64-0.493c-1.204-0.219-2.394-0.491-3.57-0.816
			c-1.175-0.326-2.33-0.703-3.465-1.132c-1.135-0.429-2.243-0.908-3.327-1.436c-1.083-0.529-2.135-1.104-3.156-1.727
			c-1.021-0.623-2.006-1.29-2.956-2.001c-0.949-0.711-1.858-1.463-2.727-2.256c-0.868-0.793-1.692-1.623-2.471-2.489
			s-1.51-1.766-2.192-2.699c-0.682-0.932-1.313-1.893-1.892-2.882c-0.579-0.989-1.103-2.001-1.573-3.037
			c-0.47-1.036-0.883-2.09-1.24-3.163c-0.356-1.073-0.655-2.159-0.894-3.259s-0.42-2.208-0.54-3.323
			c-0.12-1.116-0.181-2.234-0.181-3.356s0.06-2.24,0.181-3.356c0.12-1.116,0.3-2.224,0.54-3.323s0.538-2.186,0.894-3.259
			c0.357-1.073,0.77-2.128,1.24-3.163s0.994-2.048,1.573-3.037c0.579-0.989,1.21-1.949,1.892-2.882
			c0.682-0.932,1.413-1.832,2.192-2.699c0.779-0.867,1.603-1.697,2.471-2.489c0.868-0.793,1.777-1.545,2.727-2.256
			c0.949-0.711,1.935-1.378,2.956-2.001c1.021-0.623,2.073-1.199,3.156-1.727c1.083-0.529,2.192-1.007,3.327-1.436
			s2.29-0.806,3.465-1.132c1.175-0.326,2.365-0.598,3.57-0.816c1.204-0.219,2.418-0.383,3.64-0.493
			c1.222-0.11,2.447-0.165,3.675-0.165c1.228,0,2.453,0.055,3.675,0.165c1.222,0.11,2.435,0.274,3.64,0.493
			c1.204,0.219,2.394,0.491,3.57,0.816c1.175,0.325,2.33,0.703,3.465,1.132s2.243,0.908,3.327,1.437s2.135,1.104,3.156,1.727
			s2.006,1.29,2.956,2.001c0.949,0.711,1.858,1.464,2.727,2.256c0.868,0.793,1.692,1.623,2.471,2.489s1.51,1.766,2.192,2.699
			c0.682,0.932,1.313,1.893,1.892,2.882c0.579,0.989,1.103,2.001,1.573,3.037s0.883,2.09,1.24,3.163
			c0.357,1.073,0.655,2.159,0.894,3.259s0.42,2.208,0.54,3.323C346.386,543.427,346.446,544.546,346.446,545.667z"/>
	</g>
	<g id="path-1-2_00000122686488246140474880000013758629621563581858_">
		<path fill="#DD5555" d="M851.972,266.923c0,1.121-0.06,2.24-0.181,3.356c-0.12,1.116-0.3,2.224-0.54,3.323
			c-0.24,1.1-0.538,2.186-0.894,3.259c-0.357,1.073-0.77,2.127-1.24,3.163c-0.47,1.036-0.994,2.048-1.573,3.037
			c-0.579,0.989-1.21,1.949-1.892,2.882c-0.682,0.932-1.413,1.832-2.192,2.699c-0.779,0.867-1.603,1.697-2.471,2.49
			c-0.868,0.793-1.777,1.545-2.727,2.256c-0.949,0.711-1.934,1.378-2.956,2.001c-1.021,0.623-2.073,1.199-3.156,1.727
			c-1.083,0.529-2.192,1.007-3.327,1.437c-1.135,0.429-2.289,0.806-3.465,1.132c-1.175,0.325-2.365,0.598-3.57,0.816
			c-1.204,0.219-2.418,0.383-3.64,0.493s-2.447,0.165-3.675,0.165s-2.453-0.055-3.675-0.165c-1.222-0.11-2.436-0.274-3.64-0.493
			c-1.204-0.219-2.394-0.491-3.57-0.816c-1.175-0.326-2.33-0.703-3.465-1.132c-1.135-0.429-2.243-0.908-3.326-1.437
			c-1.083-0.529-2.135-1.104-3.156-1.727c-1.021-0.623-2.006-1.29-2.956-2.001c-0.949-0.711-1.858-1.463-2.727-2.256
			s-1.692-1.623-2.471-2.49c-0.779-0.867-1.51-1.766-2.192-2.699c-0.682-0.932-1.313-1.893-1.892-2.882
			c-0.579-0.989-1.103-2.001-1.573-3.037c-0.47-1.036-0.883-2.09-1.24-3.163c-0.357-1.073-0.655-2.159-0.894-3.259
			c-0.24-1.1-0.419-2.208-0.54-3.323c-0.12-1.116-0.181-2.234-0.181-3.356c0-1.121,0.06-2.24,0.181-3.356
			c0.12-1.116,0.3-2.224,0.54-3.323c0.24-1.1,0.538-2.186,0.894-3.259c0.356-1.073,0.77-2.128,1.24-3.163
			c0.47-1.036,0.994-2.048,1.573-3.037c0.579-0.989,1.209-1.95,1.892-2.882c0.682-0.932,1.413-1.832,2.192-2.699
			c0.779-0.867,1.603-1.697,2.471-2.49c0.868-0.793,1.777-1.545,2.727-2.256c0.949-0.711,1.935-1.378,2.956-2.001
			c1.021-0.623,2.073-1.199,3.156-1.727s2.192-1.007,3.326-1.437c1.135-0.429,2.29-0.806,3.465-1.132
			c1.175-0.326,2.365-0.598,3.57-0.816c1.205-0.219,2.418-0.383,3.64-0.493c1.222-0.11,2.447-0.165,3.675-0.165
			c1.228,0,2.453,0.055,3.675,0.165c1.222,0.11,2.435,0.274,3.64,0.493c1.205,0.219,2.394,0.491,3.57,0.816
			c1.175,0.325,2.33,0.703,3.465,1.132c1.135,0.429,2.243,0.908,3.327,1.437c1.083,0.529,2.135,1.104,3.156,1.727
			c1.021,0.623,2.006,1.29,2.956,2.001c0.949,0.711,1.858,1.463,2.727,2.256c0.868,0.793,1.692,1.623,2.471,2.49
			c0.779,0.867,1.51,1.766,2.192,2.699c0.682,0.932,1.313,1.893,1.892,2.882c0.579,0.989,1.103,2.001,1.573,3.037
			c0.47,1.036,0.883,2.09,1.24,3.163c0.357,1.073,0.655,2.159,0.894,3.259c0.24,1.1,0.42,2.207,0.54,3.323
			C851.912,264.683,851.972,265.801,851.972,266.923z"/>
		<path fill="#5555DD" d="M833.068,267.122c0,0.562-0.03,1.123-0.09,1.683c-0.06,0.56-0.15,1.115-0.27,1.667
			c-0.12,0.552-0.269,1.096-0.447,1.635c-0.178,0.538-0.385,1.067-0.62,1.586c-0.235,0.52-0.497,1.027-0.786,1.523
			c-0.289,0.496-0.604,0.978-0.945,1.445c-0.341,0.468-0.706,0.919-1.095,1.353c-0.389,0.435-0.801,0.851-1.235,1.249
			s-0.888,0.775-1.363,1.132s-0.967,0.691-1.477,1.004c-0.51,0.312-1.036,0.601-1.577,0.866c-0.541,0.265-1.095,0.505-1.662,0.72
			c-0.567,0.215-1.144,0.404-1.731,0.568c-0.587,0.163-1.182,0.3-1.784,0.409c-0.602,0.11-1.208,0.192-1.819,0.247
			c-0.611,0.055-1.223,0.083-1.837,0.083c-0.614,0-1.226-0.028-1.837-0.083c-0.611-0.055-1.217-0.138-1.819-0.247
			c-0.602-0.11-1.197-0.246-1.784-0.409c-0.587-0.163-1.164-0.353-1.731-0.568c-0.567-0.215-1.121-0.455-1.662-0.72
			c-0.541-0.265-1.067-0.554-1.577-0.866c-0.51-0.312-1.003-0.647-1.477-1.004s-0.929-0.734-1.363-1.132
			c-0.434-0.398-0.846-0.814-1.235-1.248c-0.389-0.435-0.754-0.886-1.095-1.353c-0.341-0.468-0.656-0.949-0.945-1.445
			c-0.289-0.496-0.551-1.004-0.786-1.523c-0.235-0.52-0.441-1.048-0.619-1.586c-0.178-0.538-0.327-1.083-0.447-1.635
			c-0.12-0.552-0.21-1.107-0.27-1.667c-0.06-0.56-0.09-1.121-0.09-1.683c0-0.562,0.03-1.123,0.09-1.683
			c0.06-0.56,0.15-1.115,0.27-1.667c0.12-0.551,0.269-1.096,0.447-1.634s0.385-1.067,0.619-1.587
			c0.235-0.52,0.497-1.027,0.786-1.523c0.289-0.496,0.604-0.978,0.945-1.445c0.341-0.468,0.706-0.919,1.095-1.353
			c0.389-0.435,0.801-0.851,1.235-1.249c0.434-0.398,0.888-0.775,1.363-1.132c0.474-0.357,0.967-0.691,1.477-1.004
			c0.51-0.312,1.036-0.601,1.577-0.866s1.095-0.505,1.662-0.72c0.567-0.215,1.144-0.404,1.731-0.568
			c0.587-0.163,1.182-0.3,1.784-0.409c0.602-0.11,1.208-0.192,1.819-0.247c0.611-0.055,1.223-0.083,1.837-0.083
			c0.614,0,1.226,0.028,1.837,0.083c0.611,0.055,1.217,0.138,1.819,0.247c0.602,0.11,1.197,0.246,1.784,0.409
			c0.587,0.163,1.164,0.352,1.731,0.568s1.121,0.455,1.662,0.72c0.541,0.265,1.067,0.554,1.577,0.866
			c0.51,0.312,1.003,0.647,1.477,1.004s0.929,0.734,1.363,1.132c0.434,0.398,0.846,0.814,1.235,1.249
			c0.389,0.435,0.754,0.886,1.095,1.353c0.341,0.468,0.656,0.949,0.945,1.445c0.289,0.496,0.551,1.004,0.786,1.523
			c0.235,0.52,0.441,1.048,0.62,1.587s0.327,1.083,0.447,1.634c0.12,0.552,0.21,1.107,0.27,1.667
			C833.038,265.999,833.068,266.56,833.068,267.122z"/>
		<path fill="none" stroke="#FFFFFF" stroke-width="1.5013" d="M815.383,207.122h-4.309h8.619H815.383v118.517h-4.309h8.619
			 M729.543,266.38v-4.317v8.633V266.38h171.68v-4.317v8.633"/>
	</g>
	<g id="path-1-1_00000002369220487149471290000002610638392651792284_">
		<rect x="581.733" y="189.274" fill="none" width="294.79" height="217.096"/>
		<path fill="#DD5555" d="M675.689,360.155c0,1.121-0.06,2.24-0.181,3.356c-0.12,1.116-0.3,2.224-0.54,3.323
			c-0.24,1.1-0.538,2.186-0.894,3.259c-0.357,1.073-0.77,2.128-1.24,3.163c-0.47,1.036-0.994,2.048-1.573,3.037
			c-0.579,0.989-1.21,1.949-1.892,2.882c-0.682,0.932-1.413,1.832-2.192,2.699c-0.779,0.867-1.603,1.697-2.471,2.489
			c-0.868,0.793-1.777,1.545-2.727,2.256c-0.949,0.711-1.935,1.378-2.956,2.001c-1.021,0.623-2.073,1.199-3.156,1.727
			c-1.083,0.529-2.192,1.007-3.327,1.436c-1.135,0.429-2.289,0.806-3.465,1.132c-1.175,0.325-2.365,0.598-3.57,0.816
			c-1.205,0.219-2.418,0.383-3.64,0.493c-1.222,0.11-2.447,0.165-3.675,0.165s-2.453-0.055-3.675-0.165s-2.435-0.274-3.64-0.493
			c-1.204-0.219-2.394-0.491-3.57-0.816c-1.175-0.326-2.33-0.703-3.465-1.132c-1.135-0.429-2.243-0.908-3.326-1.437
			c-1.083-0.529-2.135-1.104-3.156-1.727s-2.006-1.29-2.956-2.001c-0.949-0.711-1.858-1.463-2.727-2.256
			c-0.868-0.793-1.692-1.623-2.471-2.49c-0.779-0.867-1.51-1.766-2.192-2.699c-0.682-0.932-1.313-1.893-1.892-2.882
			c-0.579-0.989-1.103-2.001-1.573-3.037c-0.47-1.036-0.883-2.09-1.24-3.163c-0.357-1.073-0.655-2.159-0.894-3.259
			c-0.24-1.1-0.419-2.207-0.54-3.323c-0.12-1.116-0.181-2.234-0.181-3.356c0-1.121,0.06-2.24,0.181-3.356
			c0.12-1.116,0.3-2.224,0.54-3.323c0.24-1.1,0.538-2.186,0.894-3.259c0.356-1.073,0.77-2.127,1.24-3.163
			c0.47-1.036,0.994-2.048,1.573-3.037c0.579-0.989,1.209-1.949,1.892-2.882c0.682-0.932,1.413-1.832,2.192-2.699
			c0.779-0.867,1.603-1.697,2.471-2.489c0.868-0.793,1.777-1.545,2.727-2.256c0.949-0.711,1.935-1.378,2.956-2.001
			c1.021-0.623,2.073-1.199,3.156-1.727c1.083-0.529,2.192-1.007,3.326-1.436c1.135-0.429,2.29-0.806,3.465-1.132
			c1.175-0.326,2.365-0.598,3.57-0.816c1.205-0.219,2.418-0.383,3.64-0.493s2.447-0.165,3.675-0.165s2.453,0.055,3.675,0.165
			c1.222,0.11,2.435,0.274,3.64,0.493c1.204,0.219,2.394,0.491,3.57,0.816c1.175,0.326,2.33,0.703,3.465,1.132
			c1.135,0.429,2.243,0.908,3.326,1.436c1.083,0.529,2.135,1.104,3.156,1.727c1.021,0.623,2.006,1.29,2.956,2.001
			c0.949,0.711,1.858,1.463,2.727,2.256c0.868,0.793,1.692,1.623,2.471,2.489c0.779,0.867,1.51,1.766,2.192,2.699
			c0.682,0.932,1.313,1.893,1.892,2.882c0.579,0.989,1.103,2.001,1.573,3.037c0.47,1.036,0.883,2.09,1.24,3.163
			c0.357,1.073,0.655,2.159,0.894,3.259c0.24,1.1,0.42,2.207,0.54,3.323C675.629,357.915,675.689,359.034,675.689,360.155z"/>
		<path fill="#5555DD" d="M664.965,360.155c0,0.801-0.043,1.599-0.129,2.396c-0.086,0.797-0.214,1.588-0.385,2.373
			c-0.171,0.785-0.384,1.561-0.638,2.327c-0.255,0.766-0.55,1.519-0.885,2.259c-0.336,0.74-0.71,1.463-1.123,2.169
			c-0.413,0.706-0.864,1.392-1.351,2.058c-0.487,0.666-1.009,1.308-1.565,1.927c-0.556,0.619-1.144,1.211-1.764,1.777
			c-0.62,0.566-1.269,1.103-1.947,1.611c-0.678,0.508-1.381,0.984-2.11,1.429c-0.729,0.445-1.48,0.856-2.254,1.233
			c-0.773,0.377-1.565,0.719-2.375,1.026c-0.81,0.306-1.635,0.576-2.474,0.808c-0.839,0.232-1.689,0.427-2.549,0.583
			c-0.86,0.156-1.726,0.273-2.599,0.352c-0.873,0.079-1.747,0.118-2.624,0.118c-0.877,0-1.752-0.039-2.624-0.118
			c-0.873-0.078-1.739-0.196-2.599-0.352c-0.86-0.156-1.71-0.35-2.549-0.583c-0.839-0.233-1.664-0.502-2.474-0.808
			c-0.81-0.306-1.602-0.648-2.375-1.026c-0.773-0.377-1.524-0.788-2.254-1.233c-0.729-0.445-1.433-0.921-2.11-1.429
			c-0.678-0.508-1.327-1.045-1.947-1.611c-0.62-0.566-1.208-1.159-1.764-1.777c-0.556-0.619-1.078-1.261-1.565-1.927
			c-0.487-0.666-0.937-1.352-1.351-2.058c-0.413-0.706-0.788-1.429-1.123-2.169c-0.336-0.74-0.631-1.492-0.885-2.259
			c-0.255-0.766-0.467-1.542-0.638-2.327c-0.171-0.785-0.3-1.576-0.385-2.373c-0.086-0.797-0.129-1.595-0.129-2.396
			c0-0.801,0.043-1.599,0.129-2.396c0.086-0.797,0.214-1.588,0.385-2.373c0.171-0.785,0.384-1.561,0.638-2.327
			c0.255-0.766,0.55-1.519,0.885-2.259c0.336-0.74,0.71-1.462,1.123-2.169c0.413-0.706,0.863-1.392,1.351-2.058
			c0.487-0.666,1.009-1.308,1.565-1.927c0.556-0.619,1.144-1.211,1.765-1.777c0.62-0.566,1.269-1.103,1.947-1.611
			c0.678-0.508,1.381-0.984,2.11-1.429c0.729-0.445,1.48-0.856,2.254-1.233c0.773-0.377,1.565-0.719,2.375-1.026
			s1.635-0.576,2.474-0.808c0.839-0.232,1.689-0.427,2.549-0.583c0.86-0.156,1.726-0.273,2.599-0.352
			c0.873-0.078,1.747-0.118,2.624-0.118c0.877,0,1.752,0.039,2.624,0.118c0.873,0.079,1.739,0.196,2.599,0.352
			c0.86,0.156,1.71,0.35,2.549,0.583c0.839,0.232,1.664,0.502,2.474,0.808c0.81,0.306,1.602,0.648,2.375,1.026
			c0.773,0.377,1.524,0.789,2.254,1.233s1.433,0.921,2.11,1.429s1.327,1.045,1.947,1.611c0.62,0.566,1.208,1.159,1.764,1.777
			c0.556,0.619,1.078,1.261,1.565,1.927c0.487,0.666,0.937,1.352,1.351,2.058c0.413,0.706,0.788,1.429,1.123,2.169
			c0.336,0.74,0.631,1.493,0.885,2.259c0.255,0.766,0.467,1.542,0.638,2.327c0.171,0.785,0.3,1.576,0.385,2.373
			C664.922,358.556,664.965,359.355,664.965,360.155z"/>
		<path fill="none" stroke="#FFFFFF" stroke-width="1.5013" d="M639.064,320.481h-2.706h5.411H639.064v82.203h-2.706h5.411
			 M585.17,361.583v-2.994v5.988V361.583h107.788v-2.994v5.988"/>
	</g>
</g>
<style>
#g-Impacts-of-global-warming-on-glaciers-and-sea-level-rise-Artboard_1-interactive-img rect, #g-Impacts-of-global-warming-on-glaciers-and-sea-level-rise-Artboard_1-interactive-img circle, #g-Impacts-of-global-warming-on-glaciers-and-sea-level-rise-Artboard_1-interactive-img path, #g-Impacts-of-global-warming-on-glaciers-and-sea-level-rise-Artboard_1-interactive-img line, #g-Impacts-of-global-warming-on-glaciers-and-sea-level-rise-Artboard_1-interactive-img polyline, #g-Impacts-of-global-warming-on-glaciers-and-sea-level-rise-Artboard_1-interactive-img polygon { vector-effect: non-scaling-stroke; }
</style>
</svg>

