<svg xmlns="http://www.w3.org/2000/svg" width="805" height="600"><rect width="805" height="600" x="0" y="0" fill="#ffffff" id="backgorund"/><g id="viz"><clipPath id="serieClipPath"><rect x="-50" y="-10" width="805" height="600"/></clipPath><g transform="translate(0,0)"><g transform="translate(50,10)" clip-path="url(#serieClipPath)"><g id="axis"><g transform="translate(0,466.3636363636363)" fill="none" font-size="10" font-family="sans-serif" text-anchor="middle"><path class="domain" stroke="currentColor" d="M0,6V0H740V6"/><g class="tick" opacity="1" transform="translate(0,0)"><line stroke="currentColor" y2="6"/><text fill="currentColor" y="9" dy="0.71em">1,960</text></g><g class="tick" opacity="1" transform="translate(56.92307692307693,0)"><line stroke="currentColor" y2="6"/><text fill="currentColor" y="9" dy="0.71em">1,965</text></g><g class="tick" opacity="1" transform="translate(113.84615384615385,0)"><line stroke="currentColor" y2="6"/><text fill="currentColor" y="9" dy="0.71em">1,970</text></g><g class="tick" opacity="1" transform="translate(170.76923076923077,0)"><line stroke="currentColor" y2="6"/><text fill="currentColor" y="9" dy="0.71em">1,975</text></g><g class="tick" opacity="1" transform="translate(227.6923076923077,0)"><line stroke="currentColor" y2="6"/><text fill="currentColor" y="9" dy="0.71em">1,980</text></g><g class="tick" opacity="1" transform="translate(284.61538461538464,0)"><line stroke="currentColor" y2="6"/><text fill="currentColor" y="9" dy="0.71em">1,985</text></g><g class="tick" opacity="1" transform="translate(341.53846153846155,0)"><line stroke="currentColor" y2="6"/><text fill="currentColor" y="9" dy="0.71em">1,990</text></g><g class="tick" opacity="1" transform="translate(398.46153846153845,0)"><line stroke="currentColor" y2="6"/><text fill="currentColor" y="9" dy="0.71em">1,995</text></g><g class="tick" opacity="1" transform="translate(455.3846153846154,0)"><line stroke="currentColor" y2="6"/><text fill="currentColor" y="9" dy="0.71em">2,000</text></g><g class="tick" opacity="1" transform="translate(512.3076923076923,0)"><line stroke="currentColor" y2="6"/><text fill="currentColor" y="9" dy="0.71em">2,005</text></g><g class="tick" opacity="1" transform="translate(569.2307692307693,0)"><line stroke="currentColor" y2="6"/><text fill="currentColor" y="9" dy="0.71em">2,010</text></g><g class="tick" opacity="1" transform="translate(626.1538461538462,0)"><line stroke="currentColor" y2="6"/><text fill="currentColor" y="9" dy="0.71em">2,015</text></g><g class="tick" opacity="1" transform="translate(683.0769230769231,0)"><line stroke="currentColor" y2="6"/><text fill="currentColor" y="9" dy="0.71em">2,020</text></g><g class="tick" opacity="1" transform="translate(740,0)"><line stroke="currentColor" y2="6"/><text fill="currentColor" y="9" dy="0.71em">2,025</text></g><text x="740" dy="-5" text-anchor="end" style="font-family: Arial, sans-serif; font-size: 12px; fill: rgb(123, 123, 123); font-weight: bold;">year</text></g><g transform="translate(0,0)" fill="none" font-size="10" font-family="sans-serif" text-anchor="end"><path class="domain" stroke="currentColor" d="M0,570V0"/><g class="tick" opacity="1" transform="translate(0,570)"><line stroke="currentColor" x2="-6"/><text fill="currentColor" x="-9" dy="0.32em">−0.4</text></g><g class="tick" opacity="1" transform="translate(0,518.1818181818181)"><line stroke="currentColor" x2="-6"/><text fill="currentColor" x="-9" dy="0.32em">−0.2</text></g><g class="tick" opacity="1" transform="translate(0,466.3636363636363)"><line stroke="currentColor" x2="-6"/><text fill="currentColor" x="-9" dy="0.32em">0.0</text></g><g class="tick" opacity="1" transform="translate(0,414.54545454545456)"><line stroke="currentColor" x2="-6"/><text fill="currentColor" x="-9" dy="0.32em">0.2</text></g><g class="tick" opacity="1" transform="translate(0,362.72727272727275)"><line stroke="currentColor" x2="-6"/><text fill="currentColor" x="-9" dy="0.32em">0.4</text></g><g class="tick" opacity="1" transform="translate(0,310.9090909090909)"><line stroke="currentColor" x2="-6"/><text fill="currentColor" x="-9" dy="0.32em">0.6</text></g><g class="tick" opacity="1" transform="translate(0,259.09090909090907)"><line stroke="currentColor" x2="-6"/><text fill="currentColor" x="-9" dy="0.32em">0.8</text></g><g class="tick" opacity="1" transform="translate(0,207.27272727272734)"><line stroke="currentColor" x2="-6"/><text fill="currentColor" x="-9" dy="0.32em">1.0</text></g><g class="tick" opacity="1" transform="translate(0,155.45454545454544)"><line stroke="currentColor" x2="-6"/><text fill="currentColor" x="-9" dy="0.32em">1.2</text></g><g class="tick" opacity="1" transform="translate(0,103.63636363636374)"><line stroke="currentColor" x2="-6"/><text fill="currentColor" x="-9" dy="0.32em">1.4</text></g><g class="tick" opacity="1" transform="translate(0,51.818181818181834)"><line stroke="currentColor" x2="-6"/><text fill="currentColor" x="-9" dy="0.32em">1.6</text></g><g class="tick" opacity="1" transform="translate(0,0)"><line stroke="currentColor" x2="-6"/><text fill="currentColor" x="-9" dy="0.32em">1.8</text></g><text x="4" text-anchor="start" dominant-baseline="hanging" style="font-family: Arial, sans-serif; font-size: 12px; fill: rgb(123, 123, 123); font-weight: bold;">mean_temperature_change</text></g></g><g id="viz"><g><path d="M11.384615384615385,414.54545454545456C17.076923076923077,414.54545454545456,17.076923076923077,466.3636363636363,22.76923076923077,466.3636363636363C28.46153846153846,466.3636363636363,28.46153846153846,414.54545454545456,34.15384615384615,414.54545454545456C39.84615384615385,414.54545454545456,39.84615384615385,544.0909090909091,45.53846153846154,544.0909090909091C51.23076923076923,544.0909090909091,51.23076923076923,518.1818181818181,56.92307692307693,518.1818181818181C62.61538461538461,518.1818181818181,62.61538461538461,414.54545454545456,68.3076923076923,414.54545454545456C74,414.54545454545456,74,492.27272727272725,79.6923076923077,492.27272727272725C85.38461538461539,492.27272727272725,85.38461538461539,492.27272727272725,91.07692307692308,492.27272727272725C96.76923076923077,492.27272727272725,96.76923076923077,492.27272727272725,102.46153846153847,492.27272727272725C108.15384615384616,492.27272727272725,108.15384615384616,414.54545454545456,113.84615384615385,414.54545454545456C119.53846153846155,414.54545454545456,119.53846153846155,492.27272727272725,125.23076923076924,492.27272727272725C130.92307692307693,492.27272727272725,130.92307692307693,518.1818181818181,136.6153846153846,518.1818181818181C142.30769230769232,518.1818181818181,142.30769230769232,388.6363636363637,148,388.6363636363637C153.69230769230768,388.6363636363637,153.69230769230768,518.1818181818181,159.3846153846154,518.1818181818181C165.0769230769231,518.1818181818181,165.0769230769231,440.45454545454544,170.76923076923077,440.45454545454544C176.46153846153845,440.45454545454544,176.46153846153845,544.0909090909091,182.15384615384616,544.0909090909091C187.84615384615387,544.0909090909091,187.84615384615387,388.6363636363637,193.53846153846155,388.6363636363637C199.23076923076923,388.6363636363637,199.23076923076923,466.3636363636363,204.92307692307693,466.3636363636363C210.61538461538464,466.3636363636363,210.61538461538464,414.54545454545456,216.30769230769232,414.54545454545456C222,414.54545454545456,222,388.6363636363637,227.6923076923077,388.6363636363637C233.38461538461542,388.6363636363637,233.38461538461542,362.72727272727275,239.0769230769231,362.72727272727275C244.76923076923077,362.72727272727275,244.76923076923077,440.45454545454544,250.46153846153848,440.45454545454544C256.1538461538462,440.45454545454544,256.1538461538462,336.8181818181818,261.84615384615387,336.8181818181818C267.53846153846155,336.8181818181818,267.53846153846155,440.45454545454544,273.2307692307692,440.45454545454544C278.9230769230769,440.45454545454544,278.9230769230769,466.3636363636363,284.61538461538464,466.3636363636363C290.3076923076923,466.3636363636363,290.3076923076923,414.54545454545456,296,414.54545454545456C301.69230769230774,414.54545454545456,301.69230769230774,362.72727272727275,307.3846153846154,362.72727272727275C313.0769230769231,362.72727272727275,313.0769230769231,310.9090909090909,318.7692307692308,310.9090909090909C324.46153846153845,310.9090909090909,324.46153846153845,388.6363636363637,330.1538461538462,388.6363636363637C335.84615384615387,388.6363636363637,335.84615384615387,310.9090909090909,341.53846153846155,310.9090909090909C347.2307692307693,310.9090909090909,347.2307692307693,336.8181818181818,352.92307692307696,336.8181818181818C358.61538461538464,336.8181818181818,358.61538461538464,414.54545454545456,364.3076923076923,414.54545454545456C370,414.54545454545456,370,362.72727272727275,375.6923076923077,362.72727272727275C381.38461538461536,362.72727272727275,381.38461538461536,336.8181818181818,387.0769230769231,336.8181818181818C392.7692307692308,336.8181818181818,392.7692307692308,259.09090909090907,398.46153846153845,259.09090909090907C404.1538461538462,259.09090909090907,404.1538461538462,362.72727272727275,409.84615384615387,362.72727272727275C415.53846153846155,362.72727272727275,415.53846153846155,285,421.2307692307692,285C426.9230769230769,285,426.9230769230769,207.27272727272734,432.61538461538464,207.27272727272734C438.3076923076923,207.27272727272734,438.3076923076923,259.09090909090907,444,259.09090909090907C449.69230769230774,259.09090909090907,449.69230769230774,285,455.3846153846154,285C461.0769230769231,285,461.0769230769231,259.09090909090907,466.7692307692308,259.09090909090907C472.46153846153845,259.09090909090907,472.46153846153845,207.27272727272734,478.1538461538462,207.27272727272734C483.84615384615387,207.27272727272734,483.84615384615387,233.18181818181822,489.53846153846155,233.18181818181822C495.2307692307693,233.18181818181822,495.2307692307693,233.18181818181822,500.92307692307696,233.18181818181822C506.61538461538464,233.18181818181822,506.61538461538464,181.3636363636364,512.3076923076923,181.3636363636364C518,181.3636363636364,518,207.27272727272734,523.6923076923077,207.27272727272734C529.3846153846155,207.27272727272734,529.3846153846155,155.45454545454544,535.0769230769231,155.45454545454544C540.7692307692307,155.45454545454544,540.7692307692307,233.18181818181822,546.4615384615385,233.18181818181822C552.1538461538462,233.18181818181822,552.1538461538462,233.18181818181822,557.8461538461538,233.18181818181822C563.5384615384615,233.18181818181822,563.5384615384615,155.45454545454544,569.2307692307693,155.45454545454544C574.9230769230769,155.45454545454544,574.9230769230769,233.18181818181822,580.6153846153846,233.18181818181822C586.3076923076924,233.18181818181822,586.3076923076924,181.3636363636364,592,181.3636363636364C597.6923076923076,181.3636363636364,597.6923076923076,207.27272727272734,603.3846153846154,207.27272727272734C609.0769230769231,207.27272727272734,609.0769230769231,207.27272727272734,614.7692307692308,207.27272727272734C620.4615384615386,207.27272727272734,620.4615384615386,103.63636363636374,626.1538461538462,103.63636363636374C631.8461538461538,103.63636363636374,631.8461538461538,25.90909090909095,637.5384615384615,25.90909090909095C643.2307692307693,25.90909090909095,643.2307692307693,103.63636363636374,648.9230769230769,103.63636363636374C654.6153846153846,103.63636363636374,654.6153846153846,129.54545454545456,660.3076923076924,129.54545454545456C666,129.54545454545456,666,103.63636363636374,671.6923076923077,103.63636363636374C677.3846153846155,103.63636363636374,677.3846153846155,25.90909090909095,683.0769230769231,25.90909090909095C688.7692307692307,25.90909090909095,688.7692307692307,103.63636363636374,694.4615384615385,103.63636363636374" stroke="#1f77b4" fill="none"/><text font-family="sans-serif" font-size="10" class="labels" x="637.5384615384615" y="25.90909090909095" dx="0" dy="-4" text-anchor="middle"/></g></g></g><text y="4" x="4" style="font-family: Arial, sans-serif; font-size: 12px; fill: black; font-weight: bold; dominant-baseline: hanging;"/></g><g id="grid"><rect x="0" y="0" width="805" height="600" fill="none" stroke="#ccc"/></g></g></svg>